<svg width="200" height="20" viewBox="0 0 200 20" fill="none" xmlns="http://www.w3.org/2000/svg">
<path d="M19.6006 0.018569L19.2333 0.0668621L18.8624 0.152293L18.4915 0.271167L18.1205 0.419753L17.7533 0.601781L17.3824 0.81723L17.0114 1.0624L16.6442 1.341L16.2733 1.64561L15.9023 1.97994L15.5351 2.34026L15.1641 2.7266L14.7932 3.13892L14.4223 3.57355L14.055 4.03045L13.6841 4.50593L13.3131 5L12.9459 5.51263L12.575 6.04011L12.204 6.57875L11.8368 7.13224L11.4659 7.69316L11.0949 8.26523L10.724 8.84101L10.3568 9.4205L9.98584 9.99999L10.3568 10.5832L10.724 11.1627L11.0949 11.7385L11.4659 12.3068L11.8368 12.8678L12.204 13.4212L12.575 13.9599L12.9459 14.4874L13.3131 15L13.6841 15.4941L14.055 15.9733L14.4223 16.4264L14.7932 16.8611L15.1641 17.2734L15.5351 17.6597L15.9023 18.0201L16.2733 18.3544L16.6442 18.659L17.0114 18.9376L17.3824 19.1828L17.7533 19.3982L18.1205 19.5802L18.4915 19.7288L18.8624 19.8477L19.2333 19.9331L19.6006 19.9814L19.9715 20V0L19.6006 0.018569Z" fill="#FBFCFC"/>
<path d="M9.24753 8.84101L8.8766 8.26523L8.50566 7.69316L8.13841 7.13224L7.76747 6.57875L7.39653 6.04011L7.02559 5.51263L6.65836 5L6.28742 4.50593L5.91648 4.03045L5.54926 3.57355L5.17832 3.13892L4.80738 2.7266L4.44015 2.34026L4.06922 1.97994L3.69828 1.64561L3.32734 1.341L2.96011 1.0624L2.58917 0.81723L2.21823 0.601781L1.85101 0.419753L1.48007 0.271167L1.10913 0.152293L0.738188 0.0668621L0.370939 0.018569L0 0V20L0.370939 19.9814L0.738188 19.9331L1.10913 19.8477L1.48007 19.7288L1.85101 19.5802L2.21823 19.3982L2.58917 19.1828L2.96011 18.9376L3.32734 18.659L3.69828 18.3544L4.06922 18.0201L4.44015 17.6597L4.80738 17.2734L5.17832 16.8611L5.54926 16.4264L5.91648 15.9733L6.28742 15.4941L6.65836 15L7.02559 14.4874L7.39653 13.9599L7.76747 13.4212L8.13841 12.8678L8.50566 12.3068L8.8766 11.7385L9.24753 11.1627L9.61476 10.5832L9.98584 9.99999L9.61476 9.4205L9.24753 8.84101Z" fill="#FBFCFC"/>
<path d="M37.5619 20H41.0879L49.3247 0H44.614L39.5929 13.1073H39.5365L34.6001 0H29.579L37.5619 20Z" fill="#FBFCFC"/>
<path d="M58.3542 20H72.4301V15.9322H62.7547V11.8644H71.4146V7.79661H62.7547V4.0678H71.9223V0H58.3542V20Z" fill="#FBFCFC"/>
<path d="M82.6663 20H87.0668V0H82.6663V20Z" fill="#FBFCFC"/>
<path d="M131.869 20H135.395L143.632 0H138.921L133.9 13.1073H133.843L128.907 0H123.886L131.869 20Z" fill="#FBFCFC"/>
<path d="M152.435 20H156.836V0H152.435V20Z" fill="#FBFCFC"/>
<path d="M165.549 20H170.401L172.065 15.7627H179.823L181.543 20H186.508L177.82 0H174.181L165.549 20ZM178.328 12.0339H173.448L175.873 5.81921L178.328 12.0339Z" fill="#FBFCFC"/>
<path d="M96.1503 10C96.1503 16.1021 100.472 20 106.404 20C112.337 20 116.659 16.1021 116.659 10C116.659 3.89785 112.337 0 106.404 0C100.472 0 96.1503 3.89785 96.1503 10ZM100.499 10C100.499 6.45161 102.834 3.87097 106.404 3.87097C109.975 3.87097 112.31 6.45161 112.31 10C112.31 13.5484 109.975 16.129 106.404 16.129C102.834 16.129 100.499 13.5484 100.499 10Z" fill="#FBFCFC"/>
<path d="M194.145 0H190.253V0.550847H191.903V5H192.495V0.550847H194.145V0Z" fill="#FBFCFC"/>
<path d="M194.845 5H195.437V0.805084H195.451L197.243 5H197.602L199.394 0.805084H199.408V5H200V0H199.14L197.433 3.91949H197.419L195.726 0H194.845V5Z" fill="#FBFCFC"/>
</svg>
