<svg width="163" height="152" viewBox="0 0 163 152" fill="none" xmlns="http://www.w3.org/2000/svg">
<mask id="path-1-outside-1_509_1509" maskUnits="userSpaceOnUse" x="0" y="0" width="163" height="152" fill="black">
<rect fill="white" width="163" height="152"/>
<path d="M119.335 105.238V111.044C119.33 115.205 117.677 119.195 114.74 122.137C111.802 125.079 107.819 126.735 103.664 126.739H40.5959L13.1632 150.226C12.648 150.667 12.007 150.934 11.3314 150.989C10.6559 151.044 9.98021 150.884 9.40073 150.532C8.82124 150.18 8.36747 149.654 8.10404 149.028C7.84061 148.403 7.78096 147.71 7.93359 147.049L12.737 126.239C9.37882 125.362 6.4055 123.395 4.28192 120.646C2.15833 117.896 1.00421 114.52 1 111.044V61.2686C1.00474 57.1074 2.65723 53.118 5.59495 50.1756C8.53266 47.2332 12.5157 45.5781 16.6703 45.5733H17.7796C18.6322 45.5753 19.4492 45.916 20.0513 46.5205C20.6535 47.1251 20.9917 47.9441 20.9917 48.7981C20.9917 49.6521 20.6535 50.4711 20.0513 51.0757C19.4492 51.6802 18.6322 52.0209 17.7796 52.0229H16.6703C14.223 52.0259 11.8767 53.0009 10.1462 54.7342C8.41573 56.4675 7.44223 58.8174 7.43925 61.2686V111.044C7.44223 113.495 8.41573 115.845 10.1462 117.578C11.8767 119.312 14.223 120.287 16.6703 120.29C17.1547 120.29 17.6328 120.399 18.0691 120.61C18.5054 120.821 18.8886 121.128 19.1902 121.507C19.4917 121.887 19.7039 122.33 19.8108 122.803C19.9178 123.277 19.9167 123.768 19.8078 124.241L16.41 138.961L37.315 121.063C37.8983 120.564 38.6401 120.29 39.4072 120.29H103.664C106.112 120.287 108.458 119.312 110.188 117.578C111.919 115.845 112.892 113.495 112.895 111.044V105.238C112.894 104.814 112.977 104.394 113.138 104.002C113.299 103.61 113.536 103.253 113.836 102.953C114.135 102.653 114.49 102.415 114.881 102.252C115.272 102.09 115.691 102.006 116.115 102.006C116.538 102.006 116.958 102.09 117.349 102.252C117.74 102.415 118.095 102.653 118.394 102.953C118.693 103.253 118.93 103.61 119.092 104.002C119.253 104.394 119.336 104.814 119.335 105.238ZM162 16.6953V77.5466C161.995 81.3326 160.627 84.9897 158.146 87.8459C155.664 90.702 152.237 92.5653 148.494 93.0932L154.051 117.158C154.204 117.819 154.144 118.512 153.881 119.137C153.617 119.763 153.163 120.289 152.584 120.641C152.005 120.993 151.329 121.153 150.653 121.098C149.978 121.043 149.337 120.776 148.822 120.335L117.181 93.242H42.7491C38.5945 93.2372 34.6114 91.5821 31.6737 88.6397C28.736 85.6973 27.0835 81.7078 27.0787 77.5466V16.6953C27.0835 12.5341 28.736 8.54471 31.6737 5.6023C34.6114 2.65988 38.5945 1.00475 42.7491 1H146.33C150.484 1.00475 154.467 2.65988 157.405 5.6023C160.343 8.54471 161.995 12.5341 162 16.6953ZM155.561 16.6953C155.558 14.2441 154.584 11.8942 152.854 10.1609C151.123 8.42765 148.777 7.45259 146.33 7.4496H42.7491C40.3018 7.4526 37.9556 8.42766 36.2251 10.1609C34.4946 11.8942 33.5211 14.2441 33.5181 16.6953V77.5466C33.5208 79.9979 34.4942 82.348 36.2248 84.0813C37.9553 85.8147 40.3017 86.7896 42.7491 86.7923H118.369C119.136 86.7925 119.878 87.0667 120.461 87.5657L145.573 109.067L141.341 90.7433C141.232 90.2705 141.231 89.7792 141.338 89.306C141.445 88.8327 141.657 88.3898 141.959 88.01C142.26 87.6303 142.644 87.3236 143.08 87.1128C143.516 86.9019 143.994 86.7924 144.479 86.7923H146.33C148.777 86.7896 151.123 85.8147 152.854 84.0813C154.585 82.348 155.558 79.9979 155.561 77.5466L155.561 16.6953ZM138.627 47.1218C138.627 49.4925 137.925 51.81 136.61 53.7811C135.295 55.7522 133.426 57.2884 131.239 58.1955C129.052 59.1026 126.646 59.3399 124.324 58.8773C122.003 58.4147 119.871 57.273 118.197 55.5966C116.523 53.9202 115.384 51.7843 114.922 49.4592C114.46 47.134 114.697 44.7239 115.603 42.5337C116.509 40.3434 118.043 38.4714 120.011 37.1543C121.979 35.8372 124.293 35.1343 126.66 35.1343C129.833 35.1377 132.875 36.4018 135.118 38.6492C137.362 40.8966 138.624 43.9437 138.627 47.1218ZM132.188 47.1218C132.188 46.0267 131.864 44.956 131.257 44.0453C130.649 43.1346 129.786 42.4248 128.776 42.0056C127.766 41.5863 126.654 41.4766 125.582 41.6901C124.509 41.9037 123.524 42.4309 122.751 43.2053C121.978 43.9796 121.451 44.9663 121.238 46.0404C121.024 47.1145 121.134 48.2279 121.552 49.2397C121.97 50.2515 122.679 51.1164 123.588 51.7248C124.497 52.3333 125.566 52.6581 126.66 52.6581C128.125 52.6563 129.53 52.0724 130.566 51.0346C131.603 49.9968 132.186 48.5897 132.188 47.1218ZM106.506 47.1218C106.506 49.4924 105.804 51.8097 104.489 53.7807C103.174 55.7516 101.305 57.2877 99.1181 58.1947C96.9314 59.1018 94.5253 59.339 92.204 58.8764C89.8827 58.4138 87.7504 57.2721 86.0769 55.5958C84.4034 53.9195 83.2637 51.7838 82.802 49.4587C82.3403 47.1337 82.5773 44.7237 83.483 42.5336C84.3888 40.3434 85.9226 38.4715 87.8905 37.1544C89.8584 35.8374 92.172 35.1343 94.5389 35.1343C97.712 35.1377 100.754 36.4018 102.998 38.6492C105.241 40.8966 106.503 43.9437 106.506 47.1218ZM100.067 47.1218C100.067 46.0268 99.7431 44.9563 99.1358 44.0457C98.5285 43.1352 97.6652 42.4255 96.6551 42.0063C95.6451 41.5872 94.5336 41.4775 93.4613 41.691C92.389 41.9046 91.404 42.4318 90.6308 43.2061C89.8577 43.9803 89.3311 44.9668 89.1177 46.0408C88.9044 47.1148 89.0137 48.2281 89.432 49.2398C89.8504 50.2515 90.5588 51.1163 91.4678 51.7247C92.3768 52.3332 93.4455 52.658 94.5389 52.6581C96.0044 52.6563 97.4093 52.0725 98.4457 51.0346C99.482 49.9968 100.065 48.5897 100.067 47.1218ZM74.3857 47.1218C74.3855 49.4924 73.6834 51.8097 72.3683 53.7807C71.0532 55.7516 69.1841 57.2877 66.9974 58.1947C64.8106 59.1018 62.4045 59.339 60.0832 58.8764C57.7619 58.4138 55.6296 57.2721 53.9561 55.5958C52.2826 53.9195 51.1429 51.7838 50.6812 49.4587C50.2195 47.1337 50.4565 44.7237 51.3623 42.5336C52.268 40.3434 53.8018 38.4715 55.7697 37.1544C57.7376 35.8374 60.0513 35.1343 62.4181 35.1343C65.5912 35.1377 68.6334 36.4018 70.8771 38.6492C73.1207 40.8966 74.3825 43.9436 74.3857 47.1218ZM67.9464 47.1218C67.9465 46.0268 67.6223 44.9563 67.015 44.0457C66.4077 43.1352 65.5444 42.4255 64.5343 42.0063C63.5243 41.5872 62.4128 41.4775 61.3405 41.691C60.2682 41.9046 59.2832 42.4318 58.51 43.2061C57.7369 43.9803 57.2103 44.9668 56.9969 46.0408C56.7836 47.1148 56.893 48.2281 57.3113 49.2398C57.7296 50.2515 58.438 51.1163 59.347 51.7247C60.256 52.3332 61.3248 52.658 62.4181 52.6581C63.8836 52.6563 65.2886 52.0725 66.325 51.0346C67.3613 49.9968 67.9443 48.5897 67.9464 47.1218Z"/>
</mask>
<path d="M119.335 105.238V111.044C119.33 115.205 117.677 119.195 114.74 122.137C111.802 125.079 107.819 126.735 103.664 126.739H40.5959L13.1632 150.226C12.648 150.667 12.007 150.934 11.3314 150.989C10.6559 151.044 9.98021 150.884 9.40073 150.532C8.82124 150.18 8.36747 149.654 8.10404 149.028C7.84061 148.403 7.78096 147.71 7.93359 147.049L12.737 126.239C9.37882 125.362 6.4055 123.395 4.28192 120.646C2.15833 117.896 1.00421 114.52 1 111.044V61.2686C1.00474 57.1074 2.65723 53.118 5.59495 50.1756C8.53266 47.2332 12.5157 45.5781 16.6703 45.5733H17.7796C18.6322 45.5753 19.4492 45.916 20.0513 46.5205C20.6535 47.1251 20.9917 47.9441 20.9917 48.7981C20.9917 49.6521 20.6535 50.4711 20.0513 51.0757C19.4492 51.6802 18.6322 52.0209 17.7796 52.0229H16.6703C14.223 52.0259 11.8767 53.0009 10.1462 54.7342C8.41573 56.4675 7.44223 58.8174 7.43925 61.2686V111.044C7.44223 113.495 8.41573 115.845 10.1462 117.578C11.8767 119.312 14.223 120.287 16.6703 120.29C17.1547 120.29 17.6328 120.399 18.0691 120.61C18.5054 120.821 18.8886 121.128 19.1902 121.507C19.4917 121.887 19.7039 122.33 19.8108 122.803C19.9178 123.277 19.9167 123.768 19.8078 124.241L16.41 138.961L37.315 121.063C37.8983 120.564 38.6401 120.29 39.4072 120.29H103.664C106.112 120.287 108.458 119.312 110.188 117.578C111.919 115.845 112.892 113.495 112.895 111.044V105.238C112.894 104.814 112.977 104.394 113.138 104.002C113.299 103.61 113.536 103.253 113.836 102.953C114.135 102.653 114.49 102.415 114.881 102.252C115.272 102.09 115.691 102.006 116.115 102.006C116.538 102.006 116.958 102.09 117.349 102.252C117.74 102.415 118.095 102.653 118.394 102.953C118.693 103.253 118.93 103.61 119.092 104.002C119.253 104.394 119.336 104.814 119.335 105.238ZM162 16.6953V77.5466C161.995 81.3326 160.627 84.9897 158.146 87.8459C155.664 90.702 152.237 92.5653 148.494 93.0932L154.051 117.158C154.204 117.819 154.144 118.512 153.881 119.137C153.617 119.763 153.163 120.289 152.584 120.641C152.005 120.993 151.329 121.153 150.653 121.098C149.978 121.043 149.337 120.776 148.822 120.335L117.181 93.242H42.7491C38.5945 93.2372 34.6114 91.5821 31.6737 88.6397C28.736 85.6973 27.0835 81.7078 27.0787 77.5466V16.6953C27.0835 12.5341 28.736 8.54471 31.6737 5.6023C34.6114 2.65988 38.5945 1.00475 42.7491 1H146.33C150.484 1.00475 154.467 2.65988 157.405 5.6023C160.343 8.54471 161.995 12.5341 162 16.6953ZM155.561 16.6953C155.558 14.2441 154.584 11.8942 152.854 10.1609C151.123 8.42765 148.777 7.45259 146.33 7.4496H42.7491C40.3018 7.4526 37.9556 8.42766 36.2251 10.1609C34.4946 11.8942 33.5211 14.2441 33.5181 16.6953V77.5466C33.5208 79.9979 34.4942 82.348 36.2248 84.0813C37.9553 85.8147 40.3017 86.7896 42.7491 86.7923H118.369C119.136 86.7925 119.878 87.0667 120.461 87.5657L145.573 109.067L141.341 90.7433C141.232 90.2705 141.231 89.7792 141.338 89.306C141.445 88.8327 141.657 88.3898 141.959 88.01C142.26 87.6303 142.644 87.3236 143.08 87.1128C143.516 86.9019 143.994 86.7924 144.479 86.7923H146.33C148.777 86.7896 151.123 85.8147 152.854 84.0813C154.585 82.348 155.558 79.9979 155.561 77.5466L155.561 16.6953ZM138.627 47.1218C138.627 49.4925 137.925 51.81 136.61 53.7811C135.295 55.7522 133.426 57.2884 131.239 58.1955C129.052 59.1026 126.646 59.3399 124.324 58.8773C122.003 58.4147 119.871 57.273 118.197 55.5966C116.523 53.9202 115.384 51.7843 114.922 49.4592C114.46 47.134 114.697 44.7239 115.603 42.5337C116.509 40.3434 118.043 38.4714 120.011 37.1543C121.979 35.8372 124.293 35.1343 126.66 35.1343C129.833 35.1377 132.875 36.4018 135.118 38.6492C137.362 40.8966 138.624 43.9437 138.627 47.1218ZM132.188 47.1218C132.188 46.0267 131.864 44.956 131.257 44.0453C130.649 43.1346 129.786 42.4248 128.776 42.0056C127.766 41.5863 126.654 41.4766 125.582 41.6901C124.509 41.9037 123.524 42.4309 122.751 43.2053C121.978 43.9796 121.451 44.9663 121.238 46.0404C121.024 47.1145 121.134 48.2279 121.552 49.2397C121.97 50.2515 122.679 51.1164 123.588 51.7248C124.497 52.3333 125.566 52.6581 126.66 52.6581C128.125 52.6563 129.53 52.0724 130.566 51.0346C131.603 49.9968 132.186 48.5897 132.188 47.1218ZM106.506 47.1218C106.506 49.4924 105.804 51.8097 104.489 53.7807C103.174 55.7516 101.305 57.2877 99.1181 58.1947C96.9314 59.1018 94.5253 59.339 92.204 58.8764C89.8827 58.4138 87.7504 57.2721 86.0769 55.5958C84.4034 53.9195 83.2637 51.7838 82.802 49.4587C82.3403 47.1337 82.5773 44.7237 83.483 42.5336C84.3888 40.3434 85.9226 38.4715 87.8905 37.1544C89.8584 35.8374 92.172 35.1343 94.5389 35.1343C97.712 35.1377 100.754 36.4018 102.998 38.6492C105.241 40.8966 106.503 43.9437 106.506 47.1218ZM100.067 47.1218C100.067 46.0268 99.7431 44.9563 99.1358 44.0457C98.5285 43.1352 97.6652 42.4255 96.6551 42.0063C95.6451 41.5872 94.5336 41.4775 93.4613 41.691C92.389 41.9046 91.404 42.4318 90.6308 43.2061C89.8577 43.9803 89.3311 44.9668 89.1177 46.0408C88.9044 47.1148 89.0137 48.2281 89.432 49.2398C89.8504 50.2515 90.5588 51.1163 91.4678 51.7247C92.3768 52.3332 93.4455 52.658 94.5389 52.6581C96.0044 52.6563 97.4093 52.0725 98.4457 51.0346C99.482 49.9968 100.065 48.5897 100.067 47.1218ZM74.3857 47.1218C74.3855 49.4924 73.6834 51.8097 72.3683 53.7807C71.0532 55.7516 69.1841 57.2877 66.9974 58.1947C64.8106 59.1018 62.4045 59.339 60.0832 58.8764C57.7619 58.4138 55.6296 57.2721 53.9561 55.5958C52.2826 53.9195 51.1429 51.7838 50.6812 49.4587C50.2195 47.1337 50.4565 44.7237 51.3623 42.5336C52.268 40.3434 53.8018 38.4715 55.7697 37.1544C57.7376 35.8374 60.0513 35.1343 62.4181 35.1343C65.5912 35.1377 68.6334 36.4018 70.8771 38.6492C73.1207 40.8966 74.3825 43.9436 74.3857 47.1218ZM67.9464 47.1218C67.9465 46.0268 67.6223 44.9563 67.015 44.0457C66.4077 43.1352 65.5444 42.4255 64.5343 42.0063C63.5243 41.5872 62.4128 41.4775 61.3405 41.691C60.2682 41.9046 59.2832 42.4318 58.51 43.2061C57.7369 43.9803 57.2103 44.9668 56.9969 46.0408C56.7836 47.1148 56.893 48.2281 57.3113 49.2398C57.7296 50.2515 58.438 51.1163 59.347 51.7247C60.256 52.3332 61.3248 52.658 62.4181 52.6581C63.8836 52.6563 65.2886 52.0725 66.325 51.0346C67.3613 49.9968 67.9443 48.5897 67.9464 47.1218Z" fill="#0084FD"/>
<path d="M119.335 105.238V111.044C119.33 115.205 117.677 119.195 114.74 122.137C111.802 125.079 107.819 126.735 103.664 126.739H40.5959L13.1632 150.226C12.648 150.667 12.007 150.934 11.3314 150.989C10.6559 151.044 9.98021 150.884 9.40073 150.532C8.82124 150.18 8.36747 149.654 8.10404 149.028C7.84061 148.403 7.78096 147.71 7.93359 147.049L12.737 126.239C9.37882 125.362 6.4055 123.395 4.28192 120.646C2.15833 117.896 1.00421 114.52 1 111.044V61.2686C1.00474 57.1074 2.65723 53.118 5.59495 50.1756C8.53266 47.2332 12.5157 45.5781 16.6703 45.5733H17.7796C18.6322 45.5753 19.4492 45.916 20.0513 46.5205C20.6535 47.1251 20.9917 47.9441 20.9917 48.7981C20.9917 49.6521 20.6535 50.4711 20.0513 51.0757C19.4492 51.6802 18.6322 52.0209 17.7796 52.0229H16.6703C14.223 52.0259 11.8767 53.0009 10.1462 54.7342C8.41573 56.4675 7.44223 58.8174 7.43925 61.2686V111.044C7.44223 113.495 8.41573 115.845 10.1462 117.578C11.8767 119.312 14.223 120.287 16.6703 120.29C17.1547 120.29 17.6328 120.399 18.0691 120.61C18.5054 120.821 18.8886 121.128 19.1902 121.507C19.4917 121.887 19.7039 122.33 19.8108 122.803C19.9178 123.277 19.9167 123.768 19.8078 124.241L16.41 138.961L37.315 121.063C37.8983 120.564 38.6401 120.29 39.4072 120.29H103.664C106.112 120.287 108.458 119.312 110.188 117.578C111.919 115.845 112.892 113.495 112.895 111.044V105.238C112.894 104.814 112.977 104.394 113.138 104.002C113.299 103.61 113.536 103.253 113.836 102.953C114.135 102.653 114.49 102.415 114.881 102.252C115.272 102.09 115.691 102.006 116.115 102.006C116.538 102.006 116.958 102.09 117.349 102.252C117.74 102.415 118.095 102.653 118.394 102.953C118.693 103.253 118.93 103.61 119.092 104.002C119.253 104.394 119.336 104.814 119.335 105.238ZM162 16.6953V77.5466C161.995 81.3326 160.627 84.9897 158.146 87.8459C155.664 90.702 152.237 92.5653 148.494 93.0932L154.051 117.158C154.204 117.819 154.144 118.512 153.881 119.137C153.617 119.763 153.163 120.289 152.584 120.641C152.005 120.993 151.329 121.153 150.653 121.098C149.978 121.043 149.337 120.776 148.822 120.335L117.181 93.242H42.7491C38.5945 93.2372 34.6114 91.5821 31.6737 88.6397C28.736 85.6973 27.0835 81.7078 27.0787 77.5466V16.6953C27.0835 12.5341 28.736 8.54471 31.6737 5.6023C34.6114 2.65988 38.5945 1.00475 42.7491 1H146.33C150.484 1.00475 154.467 2.65988 157.405 5.6023C160.343 8.54471 161.995 12.5341 162 16.6953ZM155.561 16.6953C155.558 14.2441 154.584 11.8942 152.854 10.1609C151.123 8.42765 148.777 7.45259 146.33 7.4496H42.7491C40.3018 7.4526 37.9556 8.42766 36.2251 10.1609C34.4946 11.8942 33.5211 14.2441 33.5181 16.6953V77.5466C33.5208 79.9979 34.4942 82.348 36.2248 84.0813C37.9553 85.8147 40.3017 86.7896 42.7491 86.7923H118.369C119.136 86.7925 119.878 87.0667 120.461 87.5657L145.573 109.067L141.341 90.7433C141.232 90.2705 141.231 89.7792 141.338 89.306C141.445 88.8327 141.657 88.3898 141.959 88.01C142.26 87.6303 142.644 87.3236 143.08 87.1128C143.516 86.9019 143.994 86.7924 144.479 86.7923H146.33C148.777 86.7896 151.123 85.8147 152.854 84.0813C154.585 82.348 155.558 79.9979 155.561 77.5466L155.561 16.6953ZM138.627 47.1218C138.627 49.4925 137.925 51.81 136.61 53.7811C135.295 55.7522 133.426 57.2884 131.239 58.1955C129.052 59.1026 126.646 59.3399 124.324 58.8773C122.003 58.4147 119.871 57.273 118.197 55.5966C116.523 53.9202 115.384 51.7843 114.922 49.4592C114.46 47.134 114.697 44.7239 115.603 42.5337C116.509 40.3434 118.043 38.4714 120.011 37.1543C121.979 35.8372 124.293 35.1343 126.66 35.1343C129.833 35.1377 132.875 36.4018 135.118 38.6492C137.362 40.8966 138.624 43.9437 138.627 47.1218ZM132.188 47.1218C132.188 46.0267 131.864 44.956 131.257 44.0453C130.649 43.1346 129.786 42.4248 128.776 42.0056C127.766 41.5863 126.654 41.4766 125.582 41.6901C124.509 41.9037 123.524 42.4309 122.751 43.2053C121.978 43.9796 121.451 44.9663 121.238 46.0404C121.024 47.1145 121.134 48.2279 121.552 49.2397C121.97 50.2515 122.679 51.1164 123.588 51.7248C124.497 52.3333 125.566 52.6581 126.66 52.6581C128.125 52.6563 129.53 52.0724 130.566 51.0346C131.603 49.9968 132.186 48.5897 132.188 47.1218ZM106.506 47.1218C106.506 49.4924 105.804 51.8097 104.489 53.7807C103.174 55.7516 101.305 57.2877 99.1181 58.1947C96.9314 59.1018 94.5253 59.339 92.204 58.8764C89.8827 58.4138 87.7504 57.2721 86.0769 55.5958C84.4034 53.9195 83.2637 51.7838 82.802 49.4587C82.3403 47.1337 82.5773 44.7237 83.483 42.5336C84.3888 40.3434 85.9226 38.4715 87.8905 37.1544C89.8584 35.8374 92.172 35.1343 94.5389 35.1343C97.712 35.1377 100.754 36.4018 102.998 38.6492C105.241 40.8966 106.503 43.9437 106.506 47.1218ZM100.067 47.1218C100.067 46.0268 99.7431 44.9563 99.1358 44.0457C98.5285 43.1352 97.6652 42.4255 96.6551 42.0063C95.6451 41.5872 94.5336 41.4775 93.4613 41.691C92.389 41.9046 91.404 42.4318 90.6308 43.2061C89.8577 43.9803 89.3311 44.9668 89.1177 46.0408C88.9044 47.1148 89.0137 48.2281 89.432 49.2398C89.8504 50.2515 90.5588 51.1163 91.4678 51.7247C92.3768 52.3332 93.4455 52.658 94.5389 52.6581C96.0044 52.6563 97.4093 52.0725 98.4457 51.0346C99.482 49.9968 100.065 48.5897 100.067 47.1218ZM74.3857 47.1218C74.3855 49.4924 73.6834 51.8097 72.3683 53.7807C71.0532 55.7516 69.1841 57.2877 66.9974 58.1947C64.8106 59.1018 62.4045 59.339 60.0832 58.8764C57.7619 58.4138 55.6296 57.2721 53.9561 55.5958C52.2826 53.9195 51.1429 51.7838 50.6812 49.4587C50.2195 47.1337 50.4565 44.7237 51.3623 42.5336C52.268 40.3434 53.8018 38.4715 55.7697 37.1544C57.7376 35.8374 60.0513 35.1343 62.4181 35.1343C65.5912 35.1377 68.6334 36.4018 70.8771 38.6492C73.1207 40.8966 74.3825 43.9436 74.3857 47.1218ZM67.9464 47.1218C67.9465 46.0268 67.6223 44.9563 67.015 44.0457C66.4077 43.1352 65.5444 42.4255 64.5343 42.0063C63.5243 41.5872 62.4128 41.4775 61.3405 41.691C60.2682 41.9046 59.2832 42.4318 58.51 43.2061C57.7369 43.9803 57.2103 44.9668 56.9969 46.0408C56.7836 47.1148 56.893 48.2281 57.3113 49.2398C57.7296 50.2515 58.438 51.1163 59.347 51.7247C60.256 52.3332 61.3248 52.658 62.4181 52.6581C63.8836 52.6563 65.2886 52.0725 66.325 51.0346C67.3613 49.9968 67.9443 48.5897 67.9464 47.1218Z" stroke="#0084FD" stroke-width="2" mask="url(#path-1-outside-1_509_1509)"/>
</svg>
